# xmcd CD database file
#
# Track frame offsets:
#	183
#	20860
#	41300
#	54268
#	81330
#	96795
#	108143
#	130025
#	165070
#	185680
#	207610
#	228300
#	246093
#
# Disc length: 3549 seconds
#
# Revision: 2
# Processed by: cddbd v1.5.1PL0 Copyright (c) Steve Scherf et al.
# Submitted via: CDex 1.51
#
DISCID=a00ddb0d
DTITLE=Maanam - Ballady
DYEAR=1993
DGENRE=Folk
TTITLE0=aprocz btekitnego nieba
TTITLE1=blues Kory
TTITLE2=mitosc jest cudowna
TTITLE3=ta noc do innych jest niepodobna
TTITLE4=simple story
TTITLE5=to tylko tanga
TTITLE6=nocny patrol
TTITLE7=szat niebieskich ciat
TTITLE8=aniot
TTITLE9=kocham cie kochanie moje
TTITLE10=krakowski spleen
TTITLE11=wyjatkowo zimny maj
TTITLE12=espana forever
EXTD=YEAR: 1993
EXTT0=
EXTT1=
EXTT2=
EXTT3=
EXTT4=
EXTT5=
EXTT6=
EXTT7=
EXTT8=
EXTT9=
EXTT10=
EXTT11=
EXTT12=
PLAYORDER=
